HIERARCHY
ROOT Hips
{
	OFFSET 0.000000 83.214638 0.000000
	CHANNELS 6 Xposition Yposition Zposition Xrotation Yrotation Zrotation
	JOINT Pelvis
	{
		OFFSET 0.000000 0.000000 0.000000
		CHANNELS 3 Xrotation Yrotation Zrotation
		JOINT LeftUpLeg
		{
			OFFSET 8.479700 -4.795502 -0.379100
			CHANNELS 3 Xrotation Yrotation Zrotation
			JOINT LeftLeg
			{
				OFFSET 0.024144 -32.555107 0.112900
				CHANNELS 3 Xrotation Yrotation Zrotation
				JOINT LeftFoot
				{
					OFFSET -0.024144 -32.638630 -3.012600
					CHANNELS 3 Xrotation Yrotation Zrotation
					JOINT LeftToeBase
					{
						OFFSET 0.970200 -13.225400 11.864200
						CHANNELS 3 Xrotation Yrotation Zrotation
						End Site
						{
							OFFSET 0.000000 12.319262 0.000000
						}
					}
					JOINT LFootTongue
					{
						OFFSET 1.142400 -1.059800 6.665200
						CHANNELS 3 Xrotation Yrotation Zrotation
						End Site
						{
							OFFSET 0.000000 12.319262 0.000000
						}
					}
				}
				JOINT LeftPantLeg
				{
					OFFSET 0.918482 -16.533964 -2.284700
					CHANNELS 3 Xrotation Yrotation Zrotation
					End Site
					{
						OFFSET 0.350399 24.744368 0.000000
					}
				}
			}
		}
		JOINT RightUpLeg
		{
			OFFSET -8.479700 -4.795502 -0.379100
			CHANNELS 3 Xrotation Yrotation Zrotation
			JOINT RightLeg
			{
				OFFSET -0.023144 -32.555092 0.112900
				CHANNELS 3 Xrotation Yrotation Zrotation
				JOINT RightFoot
				{
					OFFSET 0.023144 -32.638641 -3.012700
					CHANNELS 3 Xrotation Yrotation Zrotation
					JOINT RightToeBase
					{
						OFFSET -0.970200 -13.225400 11.864200
						CHANNELS 3 Xrotation Yrotation Zrotation
						End Site
						{
							OFFSET 0.000000 12.319244 0.000000
						}
					}
					JOINT RFootTongue
					{
						OFFSET -1.142200 -1.059800 6.665200
						CHANNELS 3 Xrotation Yrotation Zrotation
						End Site
						{
							OFFSET 0.000000 12.319243 0.000000
						}
					}
				}
				JOINT RightPantLeg
				{
					OFFSET -0.919482 -16.533978 -2.284800
					CHANNELS 3 Xrotation Yrotation Zrotation
					End Site
					{
						OFFSET -0.350400 24.744419 0.000000
					}
				}
			}
		}
	}
	JOINT Spine
	{
		OFFSET 0.000000 7.722000 1.166200
		CHANNELS 3 Xrotation Yrotation Zrotation
		JOINT Spine1
		{
			OFFSET 0.000000 12.024101 0.248800
			CHANNELS 3 Xrotation Yrotation Zrotation
			JOINT Spine2
			{
				OFFSET 0.000000 11.502998 -0.491200
				CHANNELS 3 Xrotation Yrotation Zrotation
				JOINT Neck
				{
					OFFSET 0.000000 18.430702 -3.123100
					CHANNELS 3 Xrotation Yrotation Zrotation
					JOINT Head
					{
						OFFSET 0.000000 9.051102 1.034000
						CHANNELS 3 Xrotation Yrotation Zrotation
						JOINT HairB
						{
							OFFSET 0.208400 24.786102 24.822300
							CHANNELS 3 Xrotation Yrotation Zrotation
							End Site
							{
								OFFSET 0.000000 32.263779 0.000000
							}
						}
						JOINT HairA
						{
							OFFSET -7.081100 24.428299 23.196600
							CHANNELS 3 Xrotation Yrotation Zrotation
							End Site
							{
								OFFSET 0.000000 32.263779 0.000000
							}
						}
						JOINT Hat
						{
							OFFSET 16.728800 15.048294 -15.439601
							CHANNELS 3 Xrotation Yrotation Zrotation
							End Site
							{
								OFFSET 0.000000 32.263779 0.000000
							}
						}
					}
				}
				JOINT LeftShoulder
				{
					OFFSET 6.197800 13.665199 -4.064700
					CHANNELS 3 Xrotation Yrotation Zrotation
					JOINT LeftArm
					{
						OFFSET 7.778100 -0.187103 -1.709300
						CHANNELS 3 Xrotation Yrotation Zrotation
						JOINT LeftForeArm
						{
							OFFSET 22.049376 0.000000 0.000000
							CHANNELS 3 Xrotation Yrotation Zrotation
							JOINT LeftHand
							{
								OFFSET 23.009392 0.000000 0.000000
								CHANNELS 3 Xrotation Yrotation Zrotation
								JOINT LeftHandThumb1
								{
									OFFSET 3.507191 -2.063065 3.133727
									CHANNELS 3 Xrotation Yrotation Zrotation
									JOINT LeftHandThumb2
									{
										OFFSET 3.101337 -1.790558 1.790558
										CHANNELS 3 Xrotation Yrotation Zrotation
										JOINT LeftHandThumb3
										{
											OFFSET 3.058640 -1.765907 1.765906
											CHANNELS 3 Xrotation Yrotation Zrotation
											End Site
											{
												OFFSET -0.415260 3.926476 -0.049563
											}
										}
									}
								}
								JOINT LeftHandIndex1
								{
									OFFSET 11.334419 -0.901459 3.706815
									CHANNELS 3 Xrotation Yrotation Zrotation
									JOINT LeftHandIndex2
									{
										OFFSET 3.283112 0.000000 0.000000
										CHANNELS 3 Xrotation Yrotation Zrotation
										JOINT LeftHandIndex3
										{
											OFFSET 3.323853 0.000000 0.000000
											CHANNELS 3 Xrotation Yrotation Zrotation
											End Site
											{
												OFFSET -1.135597 3.097809 0.402452
											}
										}
									}
								}
								JOINT LeftHandMiddle1
								{
									OFFSET 11.335861 0.000000 0.000000
									CHANNELS 3 Xrotation Yrotation Zrotation
									JOINT LeftHandMiddle2
									{
										OFFSET 3.410492 0.000000 0.000000
										CHANNELS 3 Xrotation Yrotation Zrotation
										JOINT LeftHandMiddle3
										{
											OFFSET 3.312172 0.000000 0.000000
											CHANNELS 3 Xrotation Yrotation Zrotation
											End Site
											{
												OFFSET -1.150200 3.080154 0.400270
											}
										}
									}
								}
								JOINT LeftHandRing1
								{
									OFFSET 11.514786 -0.013176 -3.003090
									CHANNELS 3 Xrotation Yrotation Zrotation
									JOINT LeftHandRing2
									{
										OFFSET 3.053307 0.000000 0.000000
										CHANNELS 3 Xrotation Yrotation Zrotation
										JOINT LeftHandRing3
										{
											OFFSET 3.295807 0.000000 0.000000
											CHANNELS 3 Xrotation Yrotation Zrotation
											End Site
											{
												OFFSET -1.281006 3.013344 0.375733
											}
										}
									}
								}
								JOINT LeftHandPinky1
								{
									OFFSET 10.518692 -0.960396 -5.730441
									CHANNELS 3 Xrotation Yrotation Zrotation
									JOINT LeftHandPinky2
									{
										OFFSET 2.861649 0.000000 0.000000
										CHANNELS 3 Xrotation Yrotation Zrotation
										JOINT LeftHandPinky3
										{
											OFFSET 2.863380 0.000000 0.000000
											CHANNELS 3 Xrotation Yrotation Zrotation
											End Site
											{
												OFFSET -0.843597 2.711159 0.369971
											}
										}
									}
								}
							}
							JOINT LSleeve
							{
								OFFSET 6.676277 -0.344902 -1.011730
								CHANNELS 3 Xrotation Yrotation Zrotation
								End Site
								{
									OFFSET 0.000000 14.885353 0.000000
								}
							}
						}
					}
				}
				JOINT RightShoulder
				{
					OFFSET -6.197800 13.665199 -4.064700
					CHANNELS 3 Xrotation Yrotation Zrotation
					JOINT RightArm
					{
						OFFSET -7.778100 -0.187103 -1.709300
						CHANNELS 3 Xrotation Yrotation Zrotation
						JOINT RightForeArm
						{
							OFFSET -22.049376 0.000000 0.000000
							CHANNELS 3 Xrotation Yrotation Zrotation
							JOINT RightHand
							{
								OFFSET -23.009392 0.000000 0.000000
								CHANNELS 3 Xrotation Yrotation Zrotation
								JOINT RightHandThumb1
								{
									OFFSET -3.507191 -2.063065 3.133727
									CHANNELS 3 Xrotation Yrotation Zrotation
									JOINT RightHandThumb2
									{
										OFFSET -3.101337 -1.790558 1.790558
										CHANNELS 3 Xrotation Yrotation Zrotation
										JOINT RightHandThumb3
										{
											OFFSET -3.058640 -1.765907 1.765906
											CHANNELS 3 Xrotation Yrotation Zrotation
											End Site
											{
												OFFSET 0.415260 3.926476 -0.049563
											}
										}
									}
								}
								JOINT RightHandIndex1
								{
									OFFSET -11.334419 -0.901459 3.706815
									CHANNELS 3 Xrotation Yrotation Zrotation
									JOINT RightHandIndex2
									{
										OFFSET -3.283112 0.000000 0.000000
										CHANNELS 3 Xrotation Yrotation Zrotation
										JOINT RightHandIndex3
										{
											OFFSET -3.323853 0.000000 0.000000
											CHANNELS 3 Xrotation Yrotation Zrotation
											End Site
											{
												OFFSET 1.135597 3.097809 0.402452
											}
										}
									}
								}
								JOINT RightHandMiddle1
								{
									OFFSET -11.335861 0.000000 0.000000
									CHANNELS 3 Xrotation Yrotation Zrotation
									JOINT RightHandMiddle2
									{
										OFFSET -3.410492 0.000000 0.000000
										CHANNELS 3 Xrotation Yrotation Zrotation
										JOINT RightHandMiddle3
										{
											OFFSET -3.312172 0.000000 0.000000
											CHANNELS 3 Xrotation Yrotation Zrotation
											End Site
											{
												OFFSET 1.150200 3.080154 0.400270
											}
										}
									}
								}
								JOINT RightHandRing1
								{
									OFFSET -11.514786 -0.013176 -3.003090
									CHANNELS 3 Xrotation Yrotation Zrotation
									JOINT RightHandRing2
									{
										OFFSET -3.053307 0.000000 0.000000
										CHANNELS 3 Xrotation Yrotation Zrotation
										JOINT RightHandRing3
										{
											OFFSET -3.295807 0.000000 0.000000
											CHANNELS 3 Xrotation Yrotation Zrotation
											End Site
											{
												OFFSET 1.281006 3.013344 0.375733
											}
										}
									}
								}
								JOINT RightHandPinky1
								{
									OFFSET -10.518692 -0.960396 -5.730441
									CHANNELS 3 Xrotation Yrotation Zrotation
									JOINT RightHandPinky2
									{
										OFFSET -2.861649 0.000000 0.000000
										CHANNELS 3 Xrotation Yrotation Zrotation
										JOINT RightHandPinky3
										{
											OFFSET -2.863380 0.000000 0.000000
											CHANNELS 3 Xrotation Yrotation Zrotation
											End Site
											{
												OFFSET 0.843597 2.711159 0.369971
											}
										}
									}
								}
							}
							JOINT RSleeve
							{
								OFFSET -6.676277 -0.344902 -1.011730
								CHANNELS 3 Xrotation Yrotation Zrotation
								End Site
								{
									OFFSET 0.000000 14.885353 0.000000
								}
							}
						}
					}
				}
				JOINT Backpack
				{
					OFFSET 0.000000 -2.471497 36.677502
					CHANNELS 3 Xrotation Yrotation Zrotation
					End Site
					{
						OFFSET 0.000000 20.427315 0.000000
					}
				}
				JOINT Hood
				{
					OFFSET 0.000000 18.754097 -10.431000
					CHANNELS 3 Xrotation Yrotation Zrotation
					JOINT Hood1
					{
						OFFSET 0.000000 -5.011002 -7.685901
						CHANNELS 3 Xrotation Yrotation Zrotation
						End Site
						{
							OFFSET 0.000000 9.175140 0.000000
						}
					}
				}
				JOINT LHoodieString
				{
					OFFSET 5.250500 16.397697 3.089900
					CHANNELS 3 Xrotation Yrotation Zrotation
					JOINT LHoodieString1
					{
						OFFSET 0.257700 -6.364304 3.694600
						CHANNELS 3 Xrotation Yrotation Zrotation
						JOINT LHoodieString2
						{
							OFFSET 0.000000 -9.643799 2.679100
							CHANNELS 3 Xrotation Yrotation Zrotation
							End Site
							{
								OFFSET 0.000000 10.009018 0.000000
							}
						}
					}
				}
				JOINT RHoodieString
				{
					OFFSET -5.250500 16.397697 3.089900
					CHANNELS 3 Xrotation Yrotation Zrotation
					JOINT RHoodieString1
					{
						OFFSET -0.257700 -6.364304 3.694600
						CHANNELS 3 Xrotation Yrotation Zrotation
						JOINT RHoodieString2
						{
							OFFSET 0.000000 -9.643799 2.679100
							CHANNELS 3 Xrotation Yrotation Zrotation
							End Site
							{
								OFFSET 0.000000 10.009018 0.000000
							}
						}
					}
				}
			}
			JOINT LBackpack_Strap
			{
				OFFSET 15.223200 -7.719803 -6.610900
				CHANNELS 3 Xrotation Yrotation Zrotation
				End Site
				{
					OFFSET 0.000000 16.040596 0.000000
				}
			}
			JOINT RBackpack_Strap
			{
				OFFSET -15.223000 -7.719803 -6.610900
				CHANNELS 3 Xrotation Yrotation Zrotation
				End Site
				{
					OFFSET 0.000000 16.040596 0.000000
				}
			}
		}
	}
	JOINT BoyFacialAnim_Joint
	{
		OFFSET 1.000000 -82.208099 -1.550900
		CHANNELS 3 Xrotation Yrotation Zrotation
		End Site
		{
			OFFSET 0.000000 30.012791 0.000000
		}
	}
}
MOTION
Frames: 4
Frame Time: 0.033333
-10.494661 82.392715 9.384925 2.764941 5.575744 2.271301 -0.000000 -0.000000 0.000000 1.075797 -5.508808 6.381516 -0.690053 -0.916265 -0.096993 -1.022348 7.294417 -11.938830 0.000000 -0.000000 0.000000 0.000000 -0.000000 0.000000 -0.000000 0.000000 -0.000001 -9.947058 -19.629311 -5.816584 16.014792 -0.954293 0.157537 -10.076323 -0.636100 1.556471 -0.000000 0.000002 -0.000000 -0.000000 0.000002 -0.000000 -0.000000 0.000002 -0.000000 -1.375024 0.052560 -0.502306 -2.749955 0.098383 -0.741047 -2.749958 0.098384 -0.741047 10.365994 1.651276 -2.760868 -14.682140 -11.005726 4.234608 -0.000001 0.000000 0.000000 -0.000001 0.000000 0.000000 -0.000001 0.000000 0.000000 5.875806 0.061490 33.172760 -38.638882 -22.597228 11.521713 -12.063685 -59.390387 -1.537165 12.045472 -10.382483 51.530021 1.198411 -2.042844 15.577469 -0.152943 12.427914 -4.745322 -0.000002 -0.000001 -0.000001 -6.083367 12.046781 -19.820997 0.142177 0.481779 -27.190259 0.000001 0.000004 0.000001 -5.625535 4.796777 -26.380422 -0.228124 -1.408018 -17.499742 0.000003 0.000001 -0.000001 -7.957699 2.447188 -17.114996 -0.543882 -2.257158 -27.554834 0.000000 0.000000 -0.000000 -0.510875 0.104640 -1.591912 -2.201468 -4.971739 -47.866512 0.000002 0.000000 0.000005 -0.000001 -0.000001 0.000003 8.602974 2.802826 -36.448290 -27.354032 25.785497 -21.105300 -15.342294 35.679378 -0.563351 -3.327429 21.700336 -45.636998 -21.780292 7.997134 -16.330858 3.268888 -8.695632 1.371933 0.000002 0.000003 -0.000001 -11.677588 -2.857557 27.863060 0.108167 -0.667885 16.367307 -0.000000 -0.000001 -0.000000 -5.341677 3.403701 17.650500 -0.411823 1.627265 27.336289 -0.000001 0.000001 -0.000002 -14.612623 0.013606 17.026420 -1.406933 3.750128 37.332311 0.000003 0.000003 -0.000004 -0.093880 0.990058 13.426690 -1.675120 5.549131 33.926526 -0.000000 -0.000003 -0.000000 0.000001 -0.000001 0.000002 -0.000000 -0.000000 -0.000000 -0.000000 -0.000000 -0.000000 -0.000000 -0.000000 -0.000000 -0.000000 -0.000000 -0.000000 -0.000000 -0.000000 -0.000000 -0.000000 -0.000000 0.000000 -0.000000 -0.000000 -0.000000 -0.000000 -0.000000 -0.000000 -0.000000 -0.000000 0.000000 -0.000000 -0.000000 0.000000 -0.000000 -0.000000 0.000000 -0.000000 -0.000000 0.000000 
-10.488757 82.394905 9.431613 3.211544 5.353883 2.267480 -0.000000 -0.000001 -0.000000 0.619656 -5.108394 6.331103 -0.628348 -0.923658 -0.096722 -1.012035 7.117870 -11.938087 0.000000 0.000000 0.000000 0.000000 0.000000 -0.000000 0.000000 0.000000 0.000000 -10.479367 -19.974760 -5.949836 16.019292 -0.904155 0.163111 -10.049060 -0.038591 1.592861 -0.000000 -0.000002 -0.000000 -0.000000 -0.000002 -0.000000 -0.000000 0.000000 0.000000 -1.439958 0.073287 -0.457182 -2.879840 0.140774 -0.648237 -2.879841 0.140779 -0.648237 10.165198 1.660444 -2.588523 -15.345149 -10.902450 4.031334 0.000000 0.000000 -0.000000 0.000000 0.000000 -0.000000 0.000000 0.000000 -0.000000 5.839457 0.375719 33.676449 -35.053893 -19.694191 14.886469 -12.219573 -62.796991 -1.771900 24.917363 -11.862073 58.357929 1.039262 -2.792735 15.957858 0.314046 13.767080 -5.057754 0.000001 0.000000 -0.000001 -6.015518 11.554540 -20.114861 0.132251 0.467676 -26.165913 -0.000002 0.000000 0.000002 -5.623048 4.727941 -26.630733 -0.218113 -1.375615 -17.085109 0.000002 0.000003 -0.000001 -8.055725 1.957417 -17.902578 -0.509515 -2.190099 -26.668726 0.000001 -0.000000 -0.000002 -0.775052 0.682533 -5.602046 -2.157338 -4.932142 -47.356215 0.000003 0.000000 -0.000000 0.000002 0.000002 0.000002 8.605635 2.633959 -36.746032 -22.504672 20.015837 -24.689081 -15.239696 40.652408 -0.672040 16.280350 28.024862 -52.191456 -22.522629 9.056980 -14.335512 3.266088 -8.709027 1.446185 0.000001 0.000000 0.000000 -11.672004 -1.894293 28.433178 0.100563 -0.647110 15.784262 -0.000001 0.000000 0.000002 -5.407197 3.311947 18.229097 -0.399679 1.603255 26.900927 -0.000000 -0.000001 -0.000002 -14.598954 -0.435044 17.318261 -1.386080 3.722733 37.012676 0.000001 0.000002 -0.000001 -0.157845 0.850086 14.847250 -1.584465 5.414475 32.981798 0.000002 0.000000 0.000002 0.000001 -0.000003 -0.000001 -0.000001 -0.000000 -0.000000 -0.000001 -0.000000 -0.000000 -0.000001 -0.000000 -0.000000 -0.000001 -0.000000 -0.000000 -0.000001 -0.000000 -0.000000 -0.000001 -0.000000 -0.000000 -0.000001 -0.000000 -0.000000 -0.000001 -0.000000 -0.000000 -0.000001 -0.000000 -0.000000 -0.000000 0.000000 0.000000 -0.000000 0.000000 0.000000 -0.000000 -0.000001 -0.000000 
-10.487579 82.456970 9.484432 3.674482 5.128326 2.308804 0.000000 -0.000000 -0.000000 -0.019687 -4.517130 6.228767 -0.361123 -0.955955 -0.098023 -0.740022 6.676293 -11.983016 0.000000 -0.000000 -0.000000 0.000000 -0.000000 -0.000000 0.000000 0.000000 0.000001 -10.797422 -20.231143 -6.024777 15.585366 -0.817071 0.163053 -9.808335 0.526199 1.703249 0.000000 -0.000000 0.000000 0.000000 -0.000000 0.000000 0.000000 -0.000000 -0.000000 -1.476158 0.084600 -0.419971 -2.952280 0.164945 -0.576099 -2.952280 0.164946 -0.576099 9.698071 1.662781 -2.529409 -15.954914 -10.832537 3.874147 -0.000001 0.000000 -0.000000 -0.000001 0.000000 -0.000000 -0.000001 0.000000 -0.000000 5.808219 0.529799 33.783256 -31.133109 -17.647513 18.298956 -11.826839 -56.660654 -1.386293 29.563555 -13.222667 60.541718 1.253080 -1.728930 15.637233 0.810241 15.227881 -5.404688 -0.000000 -0.000001 0.000001 -5.880445 11.537095 -21.145494 0.117179 0.444940 -24.541367 -0.000002 -0.000001 -0.000005 -5.614320 5.195537 -26.578295 -0.198431 -1.309165 -16.238339 0.000000 0.000000 0.000002 -8.150163 1.741876 -19.224034 -0.443566 -2.055466 -24.904524 -0.000000 0.000002 -0.000000 -1.023041 1.174215 -11.426994 -2.127688 -4.904915 -47.009798 -0.000000 0.000002 -0.000002 0.000002 0.000001 0.000001 8.601772 2.424580 -37.075411 -17.580282 15.055378 -29.134554 -15.264892 36.042939 -0.568291 29.406655 34.385662 -54.694321 -21.352268 6.899396 -16.554973 3.266420 -8.713173 1.472806 -0.000000 0.000001 -0.000001 -11.455938 0.085955 25.895938 0.089598 -0.613017 14.842165 0.000001 -0.000000 0.000007 -5.141680 3.346311 16.164343 -0.370409 1.543905 25.830833 0.000001 0.000000 0.000003 -14.384208 -1.196423 14.815652 -1.329573 3.647028 36.136021 0.000002 0.000000 0.000000 0.048519 0.236764 13.873187 -1.520536 5.314611 32.293233 0.000000 0.000001 0.000000 0.000002 -0.000000 -0.000002 -0.000000 -0.000000 0.000000 -0.000000 -0.000000 0.000000 -0.000000 -0.000000 0.000000 -0.000000 -0.000000 0.000000 -0.000000 -0.000000 0.000000 -0.000000 -0.000000 -0.000000 -0.000000 -0.000000 0.000000 -0.000000 -0.000000 0.000000 -0.000000 -0.000000 -0.000000 0.000000 -0.000000 0.000000 0.000000 -0.000000 0.000000 0.000000 -0.000000 -0.000000 
-10.507764 82.588699 9.469441 3.947593 4.869807 2.473400 0.000000 0.000000 -0.000000 -0.707824 -3.934478 6.027566 0.174481 -1.066504 -0.106809 -0.103579 6.151028 -12.069820 0.000000 0.000000 0.000000 0.000000 0.000000 0.000000 -0.000001 0.000000 0.000001 -10.763748 -20.225102 -6.063116 14.725958 -0.689012 0.158031 -9.305365 0.891333 1.825030 -0.000000 -0.000002 0.000000 -0.000000 -0.000002 0.000000 -0.000000 0.000000 0.000000 -1.436250 0.076242 -0.401287 -2.872481 0.149805 -0.543818 -2.872481 0.149808 -0.543818 9.055009 1.686476 -2.601973 -16.572380 -10.691872 3.821272 -0.000001 0.000000 -0.000000 -0.000001 0.000000 -0.000000 -0.000001 0.000000 -0.000000 5.795063 0.420540 33.367499 -27.421266 -16.467309 20.585379 -11.348573 -43.121914 -0.852668 23.195440 -12.740174 56.974634 1.872308 1.037659 14.587746 1.077183 16.003453 -5.593696 -0.000002 0.000005 -0.000003 -5.708901 11.736077 -22.496457 0.105015 0.421723 -22.960804 0.000003 -0.000003 -0.000004 -5.596846 6.330636 -26.499367 -0.177030 -1.233428 -15.276268 -0.000001 0.000001 0.000000 -8.141866 2.352936 -21.586227 -0.365553 -1.878834 -22.634069 -0.000000 0.000000 -0.000004 -1.106561 1.935315 -18.776793 -2.120885 -4.898657 -46.930223 0.000000 0.000002 0.000004 -0.000001 -0.000003 -0.000002 8.587767 2.343315 -37.101342 -13.607241 12.099987 -32.738333 -15.327884 24.664814 -0.359281 29.172558 35.124886 -54.348444 -19.546526 3.281459 -20.451844 3.269275 -8.710384 1.464231 -0.000000 0.000001 -0.000001 -10.962002 1.784845 21.753823 0.081518 -0.584447 14.062145 -0.000002 0.000003 0.000002 -4.674295 3.110297 12.496430 -0.341630 1.483321 24.746279 0.000001 0.000001 0.000003 -14.193516 -2.142497 10.519871 -1.255008 3.542911 34.947230 -0.000001 -0.000000 0.000002 0.277382 -0.135524 11.025547 -1.542865 5.349964 32.535791 0.000002 0.000000 0.000000 0.000001 -0.000000 0.000000 0.000000 -0.000000 -0.000000 0.000000 -0.000000 -0.000000 0.000000 -0.000000 -0.000000 0.000000 -0.000000 -0.000000 0.000000 -0.000000 -0.000000 0.000000 -0.000000 -0.000000 0.000000 -0.000000 -0.000000 0.000000 -0.000000 -0.000000 0.000000 -0.000000 -0.000000 -0.000000 -0.000000 0.000000 -0.000000 -0.000000 0.000000 0.000000 0.000000 -0.000000 
